<?xml version="1.0" encoding="utf-8" standalone="no"?>
<!DOCTYPE svg PUBLIC "-//W3C//DTD SVG 1.1//EN"
  "http://www.w3.org/Graphics/SVG/1.1/DTD/svg11.dtd">
<svg xmlns:xlink="http://www.w3.org/1999/xlink" width="460.8pt" height="345.6pt" viewBox="0 0 460.8 345.6" xmlns="http://www.w3.org/2000/svg" version="1.1">
 <metadata>
  <rdf:RDF xmlns:dc="http://purl.org/dc/elements/1.1/" xmlns:cc="http://creativecommons.org/ns#" xmlns:rdf="http://www.w3.org/1999/02/22-rdf-syntax-ns#">
   <cc:Work>
    <dc:type rdf:resource="http://purl.org/dc/dcmitype/StillImage"/>
    <dc:date>2025-06-17T18:00:10.455989</dc:date>
    <dc:format>image/svg+xml</dc:format>
    <dc:creator>
     <cc:Agent>
      <dc:title>Matplotlib v3.10.1, https://matplotlib.org/</dc:title>
     </cc:Agent>
    </dc:creator>
   </cc:Work>
  </rdf:RDF>
 </metadata>
 <defs>
  <style type="text/css">*{stroke-linejoin: round; stroke-linecap: butt}</style>
 </defs>
 <g id="figure_1">
  <g id="patch_1">
   <path d="M 0 345.6 
L 460.8 345.6 
L 460.8 0 
L 0 0 
z
" style="fill: #ffffff"/>
  </g>
  <g id="axes_1">
   <g id="patch_2">
    <path d="M 362.732852 77.759308 
C 353.537406 64.62685 342.138452 53.184087 329.041363 43.938334 
C 315.944274 34.692581 301.345506 27.782524 285.892292 23.514518 
L 248.895541 157.469051 
z
" style="fill: #008000"/>
   </g>
   <g id="patch_3">
    <path d="M 277.877709 34.867589 
C 254.626754 28.445934 230.099556 28.187198 206.718305 34.116929 
C 183.337056 40.04666 161.897606 51.963019 144.517183 68.689216 
L 240.88096 168.822124 
z
" style="fill: #ffa500"/>
   </g>
   <g id="patch_4">
    <path d="M 120.275549 55.093399 
C 110.463497 64.536109 102.092447 75.369998 95.431157 87.247219 
C 88.769867 99.12444 83.890384 111.916533 80.949354 125.212832 
L 216.639326 155.226307 
z
" style="fill: #ffff00"/>
   </g>
   <g id="patch_5">
    <path d="M 105.190988 138.808649 
C 98.215432 170.344884 102.44767 203.347351 117.155017 232.102979 
C 131.862364 260.858605 156.144184 283.606476 185.797083 296.408736 
L 240.88096 168.822124 
z
" style="fill: #ffc0cb"/>
   </g>
   <g id="patch_6">
    <path d="M 182.561978 309.923907 
C 189.907659 313.095311 197.513515 315.626412 205.294745 317.488998 
C 213.075976 319.351584 221.003543 320.538688 228.989053 321.037099 
L 237.645856 182.337295 
z
" style="fill: #800080"/>
   </g>
   <g id="patch_7">
    <path d="M 232.224157 307.521927 
C 268.581664 309.791146 304.412346 297.676138 331.932572 273.808696 
C 359.452799 249.941254 376.514259 216.184585 379.410684 179.871664 
L 240.88096 168.822124 
z
" style="fill: #0000ff"/>
   </g>
   <g id="patch_8">
    <path d="M 379.410684 179.871664 
C 380.685375 163.890641 379.185115 147.8089 374.976409 132.339424 
C 370.767704 116.869949 363.913687 102.24478 354.718231 89.112321 
L 240.88096 168.822124 
z
" style="fill: #808080"/>
   </g>
   <g id="patch_9">
    <path d="M 240.88096 266.100911 
C 266.679596 266.100911 291.42506 255.851005 309.667451 237.608614 
C 327.909841 219.366224 338.159748 194.62076 338.159748 168.822124 
C 338.159748 143.023488 327.909841 118.278024 309.667451 100.035634 
C 291.42506 81.793243 266.679596 71.543337 240.88096 71.543337 
C 215.082324 71.543337 190.336861 81.793243 172.09447 100.035634 
C 153.85208 118.278024 143.602173 143.023488 143.602173 168.822124 
C 143.602173 194.62076 153.85208 219.366224 172.09447 237.608614 
C 190.336861 255.851005 215.082324 266.100911 240.88096 266.100911 
z
" clip-path="url(#p7abcea87d5)" style="fill: #ffffff; stroke: #ffffff; stroke-linejoin: miter"/>
   </g>
   <g id="matplotlib.axis_1"/>
   <g id="matplotlib.axis_2"/>
   <g id="text_1">
    <!-- A -->
    <g transform="translate(337.055929 35.344626) scale(0.1 -0.1)">
     <defs>
      <path id="DejaVuSans-41" d="M 2188 4044 
L 1331 1722 
L 3047 1722 
L 2188 4044 
z
M 1831 4666 
L 2547 4666 
L 4325 0 
L 3669 0 
L 3244 1197 
L 1141 1197 
L 716 0 
L 50 0 
L 1831 4666 
z
" transform="scale(0.015625)"/>
     </defs>
     <use xlink:href="#DejaVuSans-41"/>
    </g>
   </g>
   <g id="text_2">
    <!-- B -->
    <g transform="translate(196.441102 23.405785) scale(0.1 -0.1)">
     <defs>
      <path id="DejaVuSans-42" d="M 1259 2228 
L 1259 519 
L 2272 519 
Q 2781 519 3026 730 
Q 3272 941 3272 1375 
Q 3272 1813 3026 2020 
Q 2781 2228 2272 2228 
L 1259 2228 
z
M 1259 4147 
L 1259 2741 
L 2194 2741 
Q 2656 2741 2882 2914 
Q 3109 3088 3109 3444 
Q 3109 3797 2882 3972 
Q 2656 4147 2194 4147 
L 1259 4147 
z
M 628 4666 
L 2241 4666 
Q 2963 4666 3353 4366 
Q 3744 4066 3744 3513 
Q 3744 3084 3544 2831 
Q 3344 2578 2956 2516 
Q 3422 2416 3680 2098 
Q 3938 1781 3938 1306 
Q 3938 681 3513 340 
Q 3088 0 2303 0 
L 628 0 
L 628 4666 
z
" transform="scale(0.015625)"/>
     </defs>
     <use xlink:href="#DejaVuSans-42"/>
    </g>
   </g>
   <g id="text_3">
    <!-- C -->
    <g transform="translate(76.327527 83.208689) scale(0.1 -0.1)">
     <defs>
      <path id="DejaVuSans-43" d="M 4122 4306 
L 4122 3641 
Q 3803 3938 3442 4084 
Q 3081 4231 2675 4231 
Q 1875 4231 1450 3742 
Q 1025 3253 1025 2328 
Q 1025 1406 1450 917 
Q 1875 428 2675 428 
Q 3081 428 3442 575 
Q 3803 722 4122 1019 
L 4122 359 
Q 3791 134 3420 21 
Q 3050 -91 2638 -91 
Q 1578 -91 968 557 
Q 359 1206 359 2328 
Q 359 3453 968 4101 
Q 1578 4750 2638 4750 
Q 3056 4750 3426 4639 
Q 3797 4528 4122 4306 
z
" transform="scale(0.015625)"/>
     </defs>
     <use xlink:href="#DejaVuSans-43"/>
    </g>
   </g>
   <g id="text_4">
    <!-- D -->
    <g transform="translate(97.082435 241.190471) scale(0.1 -0.1)">
     <defs>
      <path id="DejaVuSans-44" d="M 1259 4147 
L 1259 519 
L 2022 519 
Q 2988 519 3436 956 
Q 3884 1394 3884 2338 
Q 3884 3275 3436 3711 
Q 2988 4147 2022 4147 
L 1259 4147 
z
M 628 4666 
L 1925 4666 
Q 3281 4666 3915 4102 
Q 4550 3538 4550 2338 
Q 4550 1131 3912 565 
Q 3275 0 1925 0 
L 628 0 
L 628 4666 
z
" transform="scale(0.015625)"/>
     </defs>
     <use xlink:href="#DejaVuSans-44"/>
    </g>
   </g>
   <g id="text_5">
    <!-- E -->
    <g transform="translate(195.740955 333.763558) scale(0.1 -0.1)">
     <defs>
      <path id="DejaVuSans-45" d="M 628 4666 
L 3578 4666 
L 3578 4134 
L 1259 4134 
L 1259 2753 
L 3481 2753 
L 3481 2222 
L 1259 2222 
L 1259 531 
L 3634 531 
L 3634 0 
L 628 0 
L 628 4666 
z
" transform="scale(0.015625)"/>
     </defs>
     <use xlink:href="#DejaVuSans-45"/>
    </g>
   </g>
   <g id="text_6">
    <!-- F -->
    <g transform="translate(341.037734 287.066729) scale(0.1 -0.1)">
     <defs>
      <path id="DejaVuSans-46" d="M 628 4666 
L 3309 4666 
L 3309 4134 
L 1259 4134 
L 1259 2759 
L 3109 2759 
L 3109 2228 
L 1259 2228 
L 1259 0 
L 628 0 
L 628 4666 
z
" transform="scale(0.015625)"/>
     </defs>
     <use xlink:href="#DejaVuSans-46"/>
    </g>
   </g>
   <g id="text_7">
    <!-- G -->
    <g transform="translate(388.385953 131.45053) scale(0.1 -0.1)">
     <defs>
      <path id="DejaVuSans-47" d="M 3809 666 
L 3809 1919 
L 2778 1919 
L 2778 2438 
L 4434 2438 
L 4434 434 
Q 4069 175 3628 42 
Q 3188 -91 2688 -91 
Q 1594 -91 976 548 
Q 359 1188 359 2328 
Q 359 3472 976 4111 
Q 1594 4750 2688 4750 
Q 3144 4750 3555 4637 
Q 3966 4525 4313 4306 
L 4313 3634 
Q 3963 3931 3569 4081 
Q 3175 4231 2741 4231 
Q 1884 4231 1454 3753 
Q 1025 3275 1025 2328 
Q 1025 1384 1454 906 
Q 1884 428 2741 428 
Q 3075 428 3337 486 
Q 3600 544 3809 666 
z
" transform="scale(0.015625)"/>
     </defs>
     <use xlink:href="#DejaVuSans-47"/>
    </g>
   </g>
   <g id="text_8">
    <!-- ABCDE -->
    <g transform="translate(220.164085 172.133374) scale(0.12 -0.12)">
     <use xlink:href="#DejaVuSans-41"/>
     <use xlink:href="#DejaVuSans-42" transform="translate(68.408203 0)"/>
     <use xlink:href="#DejaVuSans-43" transform="translate(135.261719 0)"/>
     <use xlink:href="#DejaVuSans-44" transform="translate(205.085938 0)"/>
     <use xlink:href="#DejaVuSans-45" transform="translate(282.087891 0)"/>
    </g>
   </g>
  </g>
 </g>
 <defs>
  <clipPath id="p7abcea87d5">
   <rect x="10.8" y="10.8" width="439.2" height="322.951617"/>
  </clipPath>
 </defs>
</svg>
